<svg xmlns="http://www.w3.org/2000/svg" viewBox="0 0 1556822 874085">
  <path d="M1503398 580037 C1495900 546294 1488401 516301 1469656 490058 C1450910 463814 1428415 441319 1402172 422573 C1372179 403828 1342186 392580 1312193 388831 C1282200 385082 1248458 388831 1218465 396329 C1244708 133891 907287 -4827 742326 205124 C716082 130142 663595 66407 592361 32665 C521128 -4827 438647 -8576 363665 13919 C359916 13919 356167 17668 352417 17668 C344919 21417 337421 21417 333672 25166 C273686 51410 224947 100149 194954 160135 C161212 227619 153714 306351 176209 381333 C176209 381333 176209 381333 176209 385082 C123721 392580 74982 422573 41240 467563 C26244 486308 14996 508803 7498 531298 C7498 535047 3749 542545 3749 546294 C3749 550043 3749 550043 3749 553793 C3749 557542 3749 561291 0 565040 C0 568789 0 572538 0 580037 C0 595033 0 606280 0 621277 C3749 632524 3749 647521 7498 658768 C11247 677514 18746 696259 29993 711256 C33742 718754 37491 726252 41240 730001 C48739 741249 59986 752496 71233 763743 C112474 801235 164961 823729 221198 823729 L221198 831228 L1289698 831228 C1323440 831228 1353433 823729 1383426 812482 C1409670 797486 1435914 778740 1458408 756245 C1477154 733750 1495900 703757 1503398 673765 C1503398 643771 1507147 610029 1503398 580037 Z M1473405 658768 C1465907 688761 1450910 711256 1432165 733750 C1413419 752496 1390924 771242 1364680 782489 C1338436 793736 1312193 801235 1282200 801235 L213700 801235 C164961 801235 116223 782489 78732 752496 C41240 715005 18746 670015 14996 621277 C11247 572538 26244 523800 56237 482559 C86230 445068 131219 415075 179958 407577 C187456 403828 191205 400079 194954 396329 C198703 388831 202453 385082 198703 377584 C176209 306351 183707 231368 217449 167633 C236195 133891 258689 107647 284933 85152 C288682 81403 296181 77654 299930 73905 C307428 70156 311177 66407 318675 58909 C322424 55159 329923 51410 333672 51410 C348668 43912 363665 36414 378661 32665 C449895 10170 521128 13919 588612 47661 C652347 77654 701086 133891 719831 205124 C723580 212623 731079 220121 738577 220121 C746075 223870 757323 220121 761072 212623 C843552 107647 967273 103898 1046005 137640 C1124737 167633 1210966 253863 1195970 385082 C1195970 392580 1195970 400079 1203468 403828 C1210966 407577 1218465 411326 1225963 407577 C1255956 400079 1282200 400079 1312193 403828 C1338436 407577 1368429 418824 1390924 433821 C1417168 448817 1435914 467563 1450910 493807 C1465907 516301 1477154 542545 1480903 572538 C1484652 602531 1480903 628775 1473405 658768 Z" fill="white" fill-opacity="0.08"/>
  <path d="M1552136 600400 C1544638 566658 1533391 532916 1514645 502923 C1492150 472930 1469656 446686 1439663 427940 C1409670 409195 1375928 394198 1342186 390449 C1315942 386700 1289698 386700 1267203 390449 C1267203 270477 1199719 169251 1087245 124261 C974772 79272 858549 101767 776068 184247 C746075 120512 693588 68025 629852 34283 C554870 -3209 468640 -10707 386160 15537 C374912 19286 367414 23035 356167 26784 C348668 30533 341170 30533 337421 38032 C329923 41781 322424 45530 318675 49279 C266188 79272 228696 124261 202453 173000 C164961 240484 153714 315467 172460 390449 C172460 390449 172460 394198 172460 394198 C119972 409195 78732 439188 44989 480428 C33742 495425 22495 514170 14997 532916 L14997 532916 C11247 540414 11247 544163 7498 551661 L7498 551661 C3749 559159 3749 562909 3749 570407 C3749 577905 0 585403 0 589153 C0 596651 0 600400 0 607898 C0 607898 0 607898 0 611647 C0 615396 0 622895 0 626644 C0 626644 0 630393 0 630393 C0 637891 0 641640 0 649138 C3749 671633 7498 694128 18746 716623 C22495 724121 26244 731619 29993 739117 C33742 746616 37491 754114 44989 761612 C56237 776609 67484 791605 82481 806602 C127470 851591 187456 874086 247442 874086 L1315942 874086 C1353433 874086 1387175 866588 1424666 855340 C1454659 844093 1484652 821598 1507147 795354 C1529642 769110 1544638 739117 1555886 705375 C1555886 671633 1559635 634142 1552136 600400 Z M1495900 686630 C1488401 716623 1473405 739117 1454659 761612 C1435914 780358 1413419 799103 1387175 810351 C1360931 821598 1334687 829096 1304694 829096 L236195 829096 C187456 829096 138718 810351 101226 780358 C63735 742867 41240 697877 37491 649138 C33742 600400 48739 551661 78732 510421 C108725 472930 153714 442937 202453 435438 C209951 431689 213700 427940 217449 424191 C221198 416693 224947 412944 221198 405446 C198703 334212 206202 259230 239944 195495 C258689 161753 281184 135509 307428 113014 C311177 109265 318675 105516 322424 101767 C329923 98018 333672 90519 341170 86770 C344919 83021 352417 79272 356167 79272 C371163 71774 386160 64275 401156 60526 C472389 38032 543623 41781 611107 75523 C674842 105516 723581 161753 742326 232986 C746075 240484 753573 247982 761072 247982 C768570 251732 779817 247982 783566 240484 C866047 135509 989768 131760 1068500 165502 C1147231 195495 1233461 281725 1218465 412944 C1218465 420442 1218465 427940 1225963 431689 C1233461 435438 1240959 439188 1248458 435438 C1278451 427940 1304694 427940 1334687 431689 C1360931 435438 1390924 446686 1413419 461682 C1439663 476679 1458408 495425 1473405 521668 C1488401 544163 1499649 570407 1503398 600400 C1507147 630393 1503398 656637 1495900 686630 Z" fill="none" stroke="white" stroke-width="4000"/>
</svg>